<mxfile host="65bd71144e">
    <diagram id="aSiP9iEQSMN-YyD9w5C7" name="Page-1">
        <mxGraphModel dx="977" dy="895" grid="1" gridSize="10" guides="1" tooltips="1" connect="1" arrows="1" fold="1" page="1" pageScale="1" pageWidth="1169" pageHeight="827" math="0" shadow="0">
            <root>
                <mxCell id="0"/>
                <mxCell id="1" parent="0"/>
                <mxCell id="41" value="&lt;span style=&quot;background-color: rgb(255 , 255 , 255)&quot;&gt;Earth&lt;br&gt;Orbit&lt;/span&gt;" style="endArrow=none;html=1;labelBackgroundColor=none;strokeColor=#CC0000;fillColor=#FFFFFF;elbow=vertical;" edge="1" parent="1">
                    <mxGeometry width="50" height="50" relative="1" as="geometry">
                        <mxPoint x="596" y="312.3593073593073" as="sourcePoint"/>
                        <mxPoint y="540" as="targetPoint"/>
                        <Array as="points">
                            <mxPoint x="300" y="440"/>
                        </Array>
                    </mxGeometry>
                </mxCell>
                <mxCell id="14" value="" style="group" vertex="1" connectable="0" parent="1">
                    <mxGeometry x="30" y="30" width="170" height="170" as="geometry"/>
                </mxCell>
                <mxCell id="2" value="" style="ellipse;whiteSpace=wrap;html=1;aspect=fixed;fillColor=#F7FF0A;strokeColor=#FF8000;" vertex="1" parent="14">
                    <mxGeometry width="170" height="170" as="geometry"/>
                </mxCell>
                <mxCell id="3" value="" style="endArrow=none;html=1;entryX=0;entryY=0;entryDx=0;entryDy=0;exitX=0;exitY=1;exitDx=0;exitDy=0;strokeColor=#FF8000;" edge="1" parent="14" source="2" target="2">
                    <mxGeometry width="50" height="50" relative="1" as="geometry">
                        <mxPoint x="187" y="187" as="sourcePoint"/>
                        <mxPoint x="229.5" y="144.5" as="targetPoint"/>
                    </mxGeometry>
                </mxCell>
                <mxCell id="4" value="" style="endArrow=none;html=1;entryX=0.5;entryY=0;entryDx=0;entryDy=0;exitX=0.5;exitY=1;exitDx=0;exitDy=0;strokeColor=#FF8000;" edge="1" parent="14" source="2" target="2">
                    <mxGeometry width="50" height="50" relative="1" as="geometry">
                        <mxPoint x="76.49942359914347" y="137.2075764008565" as="sourcePoint"/>
                        <mxPoint x="76.49942359914347" y="16.999423599143466" as="targetPoint"/>
                    </mxGeometry>
                </mxCell>
                <mxCell id="5" value="" style="endArrow=none;html=1;entryX=1;entryY=0;entryDx=0;entryDy=0;exitX=1;exitY=1;exitDx=0;exitDy=0;strokeColor=#FF8000;" edge="1" parent="14" source="2" target="2">
                    <mxGeometry width="50" height="50" relative="1" as="geometry">
                        <mxPoint x="93.5" y="178.5" as="sourcePoint"/>
                        <mxPoint x="93.5" y="8.5" as="targetPoint"/>
                    </mxGeometry>
                </mxCell>
                <mxCell id="6" value="" style="endArrow=none;html=1;entryX=0;entryY=0;entryDx=0;entryDy=0;strokeColor=#FF8000;" edge="1" parent="14" target="2">
                    <mxGeometry width="50" height="50" relative="1" as="geometry">
                        <mxPoint x="144.5" y="24.65" as="sourcePoint"/>
                        <mxPoint x="33.39592359914346" y="33.39592359914346" as="targetPoint"/>
                    </mxGeometry>
                </mxCell>
                <mxCell id="7" value="" style="endArrow=none;html=1;entryX=0.025;entryY=0.305;entryDx=0;entryDy=0;exitX=0.965;exitY=0.3;exitDx=0;exitDy=0;exitPerimeter=0;entryPerimeter=0;strokeColor=#FF8000;" edge="1" parent="14">
                    <mxGeometry width="50" height="50" relative="1" as="geometry">
                        <mxPoint x="164.04999999999998" y="51" as="sourcePoint"/>
                        <mxPoint x="4.25" y="51.85" as="targetPoint"/>
                    </mxGeometry>
                </mxCell>
                <mxCell id="8" value="" style="endArrow=none;html=1;entryX=0;entryY=1;entryDx=0;entryDy=0;exitX=1;exitY=1;exitDx=0;exitDy=0;strokeColor=#FF8000;" edge="1" parent="14" source="2" target="2">
                    <mxGeometry width="50" height="50" relative="1" as="geometry">
                        <mxPoint x="153.60407640085643" y="153.60407640085643" as="sourcePoint"/>
                        <mxPoint x="153.60407640085643" y="33.39592359914355" as="targetPoint"/>
                    </mxGeometry>
                </mxCell>
                <mxCell id="9" value="" style="endArrow=none;html=1;exitX=1;exitY=0.5;exitDx=0;exitDy=0;entryX=0;entryY=0.5;entryDx=0;entryDy=0;strokeColor=#FF8000;" edge="1" parent="14" source="2" target="2">
                    <mxGeometry width="50" height="50" relative="1" as="geometry">
                        <mxPoint x="164.9" y="84.575" as="sourcePoint"/>
                        <mxPoint x="5.1" y="85.85" as="targetPoint"/>
                    </mxGeometry>
                </mxCell>
                <mxCell id="10" value="" style="endArrow=none;html=1;entryX=0.04;entryY=0.745;entryDx=0;entryDy=0;exitX=0.955;exitY=0.74;exitDx=0;exitDy=0;exitPerimeter=0;entryPerimeter=0;strokeColor=#FF8000;" edge="1" parent="14">
                    <mxGeometry width="50" height="50" relative="1" as="geometry">
                        <mxPoint x="162.35" y="117.3" as="sourcePoint"/>
                        <mxPoint x="6.8" y="118.14999999999999" as="targetPoint"/>
                    </mxGeometry>
                </mxCell>
                <mxCell id="13" value="" style="group;rotation=-90;strokeColor=#FF8000;" vertex="1" connectable="0" parent="14">
                    <mxGeometry x="6.8" y="49.3" width="159.79999999999998" height="67.14999999999999" as="geometry"/>
                </mxCell>
                <mxCell id="11" value="" style="endArrow=none;html=1;entryX=0.025;entryY=0.305;entryDx=0;entryDy=0;exitX=0.965;exitY=0.3;exitDx=0;exitDy=0;exitPerimeter=0;entryPerimeter=0;strokeColor=#FF8000;" edge="1" parent="13">
                    <mxGeometry width="50" height="50" relative="1" as="geometry">
                        <mxPoint x="46.74999999999999" y="-45.89999999999999" as="sourcePoint"/>
                        <mxPoint x="46.74999999999999" y="113.89999999999998" as="targetPoint"/>
                    </mxGeometry>
                </mxCell>
                <mxCell id="12" value="" style="endArrow=none;html=1;entryX=0.04;entryY=0.745;entryDx=0;entryDy=0;exitX=0.955;exitY=0.74;exitDx=0;exitDy=0;exitPerimeter=0;entryPerimeter=0;strokeColor=#FF8000;" edge="1" parent="13">
                    <mxGeometry width="50" height="50" relative="1" as="geometry">
                        <mxPoint x="113.04999999999998" y="-44.199999999999996" as="sourcePoint"/>
                        <mxPoint x="113.89999999999998" y="111.34999999999998" as="targetPoint"/>
                    </mxGeometry>
                </mxCell>
                <mxCell id="38" value="Reference &lt;br&gt;Signal" style="shape=flexArrow;endArrow=classic;html=1;width=30;endSize=16.066666666666666;exitX=1;exitY=0.5;exitDx=0;exitDy=0;fillColor=#FFFFFF;" edge="1" parent="13">
                    <mxGeometry width="50" height="50" relative="1" as="geometry">
                        <mxPoint x="43.19999999999969" y="20.704999999999956" as="sourcePoint"/>
                        <mxPoint x="513.2" y="170.7" as="targetPoint"/>
                    </mxGeometry>
                </mxCell>
                <mxCell id="15" value="hot" style="rounded=0;whiteSpace=wrap;html=1;strokeColor=#FF8000;" vertex="1" parent="14">
                    <mxGeometry x="26.349999999999998" y="56.1" width="25.5" height="24.65" as="geometry"/>
                </mxCell>
                <mxCell id="16" value="hot" style="rounded=0;whiteSpace=wrap;html=1;strokeColor=#FF8000;" vertex="1" parent="14">
                    <mxGeometry x="119" y="119" width="25.5" height="24.65" as="geometry"/>
                </mxCell>
                <mxCell id="17" value="hot" style="rounded=0;whiteSpace=wrap;html=1;strokeColor=#FF8000;" vertex="1" parent="14">
                    <mxGeometry x="90.1" y="26.349999999999998" width="25.5" height="24.65" as="geometry"/>
                </mxCell>
                <mxCell id="25" value="" style="group" vertex="1" connectable="0" parent="1">
                    <mxGeometry x="558" y="237" width="122" height="112" as="geometry"/>
                </mxCell>
                <mxCell id="18" value="" style="ellipse;whiteSpace=wrap;html=1;strokeColor=#6c8ebf;fillColor=#3399FF;align=center;" vertex="1" parent="25">
                    <mxGeometry x="2" width="120" height="112" as="geometry"/>
                </mxCell>
                <mxCell id="21" value="" style="shape=xor;whiteSpace=wrap;html=1;strokeColor=#d6b656;rotation=-180;fillColor=#fff2cc;" vertex="1" parent="25">
                    <mxGeometry x="2" width="62" height="112" as="geometry"/>
                </mxCell>
                <mxCell id="19" value="" style="curved=1;endArrow=none;html=1;strokeColor=#1A1A1A;exitX=0;exitY=0.5;exitDx=0;exitDy=0;entryX=1;entryY=0.5;entryDx=0;entryDy=0;endFill=0;fillColor=#d5e8d4;" edge="1" parent="25" source="18" target="18">
                    <mxGeometry width="50" height="50" relative="1" as="geometry">
                        <mxPoint x="-107" y="-23" as="sourcePoint"/>
                        <mxPoint x="-57" y="-73" as="targetPoint"/>
                        <Array as="points">
                            <mxPoint x="43" y="77"/>
                            <mxPoint x="73" y="77"/>
                        </Array>
                    </mxGeometry>
                </mxCell>
                <mxCell id="24" value="&lt;span&gt;day&amp;nbsp; &amp;nbsp; &amp;nbsp; &amp;nbsp; &amp;nbsp; &amp;nbsp; &amp;nbsp; &amp;nbsp; &amp;nbsp;night&lt;br&gt;&lt;/span&gt;side&amp;nbsp; &amp;nbsp; &amp;nbsp; &amp;nbsp; &amp;nbsp; &amp;nbsp; &amp;nbsp; &amp;nbsp; &amp;nbsp;side&lt;br&gt;&lt;br&gt;" style="rounded=0;whiteSpace=wrap;html=1;strokeColor=none;fillColor=none;" vertex="1" parent="25">
                    <mxGeometry x="-1" y="19" width="120" height="60" as="geometry"/>
                </mxCell>
                <mxCell id="30" value="Back-&lt;br&gt;Scatter" style="shape=flexArrow;endArrow=classic;html=1;strokeColor=#1A1A1A;width=30;endSize=16.066666666666666;exitX=0.25;exitY=0.25;exitDx=0;exitDy=0;exitPerimeter=0;fillColor=#FFFFFF;" edge="1" parent="1" source="29" target="18">
                    <mxGeometry width="50" height="50" relative="1" as="geometry">
                        <mxPoint x="340" y="414.00500000000005" as="sourcePoint"/>
                        <mxPoint x="980.3999999999996" y="730.6800000000001" as="targetPoint"/>
                    </mxGeometry>
                </mxCell>
                <mxCell id="26" value="" style="shape=flexArrow;endArrow=classic;html=1;width=30;endSize=16.066666666666666;exitX=1;exitY=0.5;exitDx=0;exitDy=0;entryX=0.07;entryY=0.4;entryDx=0;entryDy=0;entryPerimeter=0;fillColor=#FFFFFF;" edge="1" parent="1" source="16" target="29">
                    <mxGeometry width="50" height="50" relative="1" as="geometry">
                        <mxPoint x="220" y="110" as="sourcePoint"/>
                        <mxPoint x="790" y="480" as="targetPoint"/>
                    </mxGeometry>
                </mxCell>
                <mxCell id="31" value="Reference &lt;br&gt;Signal" style="shape=flexArrow;endArrow=classic;html=1;width=30;endSize=16.066666666666666;exitX=1;exitY=0.5;exitDx=0;exitDy=0;fillColor=#FFFFFF;" edge="1" parent="1" source="16" target="21">
                    <mxGeometry width="50" height="50" relative="1" as="geometry">
                        <mxPoint x="184.5" y="32.325000000000045" as="sourcePoint"/>
                        <mxPoint x="540" y="270" as="targetPoint"/>
                    </mxGeometry>
                </mxCell>
                <mxCell id="29" value="" style="ellipse;shape=cloud;whiteSpace=wrap;html=1;strokeColor=#999999;fillColor=#292929;gradientColor=#D6D6D6;gradientDirection=radial;" vertex="1" parent="1">
                    <mxGeometry x="803" y="443" width="70" height="70" as="geometry"/>
                </mxCell>
                <mxCell id="33" value="Asteroid" style="text;html=1;strokeColor=none;fillColor=#FFFFFF;align=center;verticalAlign=middle;whiteSpace=wrap;rounded=0;" vertex="1" parent="1">
                    <mxGeometry x="835" y="416" width="60" height="30" as="geometry"/>
                </mxCell>
                <mxCell id="34" value="Earth" style="text;html=1;strokeColor=none;fillColor=#FFFFFF;align=center;verticalAlign=middle;whiteSpace=wrap;rounded=0;" vertex="1" parent="1">
                    <mxGeometry x="590" y="202" width="60" height="30" as="geometry"/>
                </mxCell>
                <mxCell id="35" value="Sun" style="text;html=1;strokeColor=none;fillColor=#FFFFFF;align=center;verticalAlign=middle;whiteSpace=wrap;rounded=0;" vertex="1" parent="1">
                    <mxGeometry x="157" y="5" width="60" height="30" as="geometry"/>
                </mxCell>
                <mxCell id="37" value="Reference &lt;br&gt;Signal" style="shape=flexArrow;endArrow=classic;html=1;width=30;endSize=16.066666666666666;exitX=1;exitY=0.5;exitDx=0;exitDy=0;fillColor=#FFFFFF;" edge="1" parent="1" source="17">
                    <mxGeometry width="50" height="50" relative="1" as="geometry">
                        <mxPoint x="145.00000000000023" y="69.99500000000005" as="sourcePoint"/>
                        <mxPoint x="570" y="210" as="targetPoint"/>
                    </mxGeometry>
                </mxCell>
                <mxCell id="42" value="" style="endArrow=none;html=1;labelBackgroundColor=none;strokeColor=#CC0000;fillColor=#FFFFFF;elbow=vertical;" edge="1" parent="1" target="18">
                    <mxGeometry width="50" height="50" relative="1" as="geometry">
                        <mxPoint x="950" y="20" as="sourcePoint"/>
                        <mxPoint x="520" y="287.64" as="targetPoint"/>
                        <Array as="points">
                            <mxPoint x="880" y="100"/>
                            <mxPoint x="810" y="170"/>
                            <mxPoint x="740" y="220"/>
                        </Array>
                    </mxGeometry>
                </mxCell>
                <mxCell id="46" value="&lt;span style=&quot;background-color: rgb(255 , 255 , 255)&quot;&gt;PHA&lt;br&gt;Orbit&lt;/span&gt;" style="endArrow=none;html=1;labelBackgroundColor=none;strokeColor=#FF00FF;fillColor=#FFFFFF;elbow=vertical;exitX=0.16;exitY=0.55;exitDx=0;exitDy=0;exitPerimeter=0;" edge="1" parent="1" source="29">
                    <mxGeometry width="50" height="50" relative="1" as="geometry">
                        <mxPoint x="606" y="322.3593073593074" as="sourcePoint"/>
                        <mxPoint y="310" as="targetPoint"/>
                        <Array as="points">
                            <mxPoint x="700" y="510"/>
                            <mxPoint x="570" y="520"/>
                            <mxPoint x="440" y="520"/>
                            <mxPoint x="300" y="490"/>
                            <mxPoint x="140" y="420"/>
                        </Array>
                    </mxGeometry>
                </mxCell>
                <mxCell id="48" value="" style="endArrow=none;html=1;labelBackgroundColor=none;strokeColor=#FF00FF;fillColor=#FFFFFF;elbow=vertical;" edge="1" parent="1" target="29">
                    <mxGeometry width="50" height="50" relative="1" as="geometry">
                        <mxPoint x="950" as="sourcePoint"/>
                        <mxPoint x="686.9999999999998" y="274" as="targetPoint"/>
                        <Array as="points">
                            <mxPoint x="980" y="110"/>
                            <mxPoint x="990" y="220"/>
                            <mxPoint x="960" y="340"/>
                            <mxPoint x="920" y="400"/>
                        </Array>
                    </mxGeometry>
                </mxCell>
            </root>
        </mxGraphModel>
    </diagram>
</mxfile>